<?xml version="1.0" standalone="no"?>
<!DOCTYPE svg PUBLIC "-//W3C//DTD SVG 20010904//EN"
 "http://www.w3.org/TR/2001/REC-SVG-20010904/DTD/svg10.dtd">
<svg version="1.0" xmlns="http://www.w3.org/2000/svg"
 width="1024.000000pt" height="1024.000000pt" viewBox="0 0 1024.000000 1024.000000"
 preserveAspectRatio="xMidYMid meet">

<g transform="translate(0.000000,1024.000000) scale(0.100000,-0.100000)"
fill="#000000" stroke="none">
<path d="M0 5120 l0 -5120 5120 0 5120 0 0 5120 0 5120 -5120 0 -5120 0 0
-5120z m5355 3549 c396 -305 901 -556 1335 -663 322 -80 501 -96 1048 -96
l414 0 -5 -1327 c-3 -867 -9 -1364 -16 -1433 -32 -298 -114 -643 -196 -820
l-16 -35 5 33 c3 18 1 32 -4 32 -6 0 -10 -10 -10 -22 -1 -26 -26 -65 -36 -55
-4 3 1 13 10 22 9 9 15 26 15 38 -1 15 -3 17 -6 6 -2 -10 -12 -19 -22 -22 -10
-2 -21 -16 -25 -30 -9 -37 -118 -261 -181 -372 -129 -228 -361 -534 -590 -778
-193 -205 -491 -482 -695 -647 -24 -19 -84 -69 -134 -111 -99 -82 -180 -145
-326 -254 -129 -97 -320 -238 -346 -255 -240 -166 -259 -177 -273 -163 -10 12
-16 12 -29 1 -15 -12 -16 -11 -3 4 7 10 18 15 23 12 6 -4 15 0 20 7 8 11 9 10
4 -3 -6 -20 2 -22 24 -8 13 9 13 11 0 21 -12 8 -9 9 11 5 18 -4 31 0 40 11 12
15 12 16 -8 11 -17 -4 -20 -2 -16 10 5 11 2 14 -10 9 -11 -4 -17 -1 -17 8 0 8
-5 14 -11 13 -6 -2 -13 2 -16 8 -5 14 86 25 108 13 12 -6 22 -1 38 17 12 14
20 29 16 32 -3 4 -10 1 -14 -6 -4 -7 -15 -10 -25 -6 -16 6 -17 8 -2 16 9 5 16
17 15 26 0 10 -3 12 -6 5 -2 -7 -14 -11 -26 -9 -12 1 -16 1 -9 -1 20 -7 14
-23 -10 -24 -18 -1 -16 -3 10 -10 17 -5 32 -14 32 -19 0 -13 -13 -13 -28 2 -8
8 -15 8 -26 -1 -11 -9 -20 -10 -35 -2 -11 6 -50 11 -87 11 -60 0 -66 -2 -61
-19 2 -10 0 -25 -5 -32 -8 -11 -9 -10 -4 3 3 10 1 18 -5 18 -5 0 -7 11 -3 25
4 15 2 25 -4 25 -6 0 -12 -8 -15 -17 -3 -15 -6 -14 -15 7 -12 27 -47 70 -56
70 -3 0 -6 -7 -6 -15 0 -8 6 -15 14 -15 7 0 16 -9 19 -20 4 -15 0 -20 -16 -20
-11 0 -17 3 -14 7 4 3 0 14 -9 24 -9 10 -14 25 -11 34 9 21 -20 19 -32 -3 -8
-14 -12 -15 -22 -4 -11 10 -10 12 3 12 17 0 35 36 24 47 -3 4 -6 -1 -6 -9 0
-18 -50 -31 -86 -22 -15 4 -24 2 -24 -5 0 -6 8 -11 18 -12 9 0 12 -3 5 -5 -7
-3 -22 0 -33 6 -21 11 -21 12 -3 25 10 8 13 15 6 15 -6 0 -20 3 -30 6 -13 4
-15 3 -4 -4 9 -7 10 -12 2 -16 -6 -4 -14 0 -17 8 -3 9 -14 16 -24 16 -10 0
-23 7 -30 15 -7 8 -20 15 -29 14 -11 0 -10 -3 7 -11 12 -6 22 -15 22 -19 0 -4
17 -17 37 -30 21 -12 49 -32 62 -43 17 -15 25 -17 28 -8 3 6 14 12 26 11 22 0
22 0 0 -9 -33 -13 -28 -18 15 -14 25 2 31 1 18 -5 -19 -7 -19 -8 3 -14 14 -3
24 0 28 9 3 8 13 14 22 14 14 -1 15 -2 0 -13 -30 -23 -30 -55 1 -77 23 -16 30
-17 39 -6 6 7 8 16 4 19 -3 4 -2 7 4 7 15 0 27 -34 14 -38 -6 -2 -9 -8 -5 -13
3 -5 0 -9 -5 -9 -6 0 -11 5 -11 10 0 6 -4 9 -8 8 -16 -5 -112 67 -107 80 3 8
0 12 -7 9 -24 -8 -340 224 -335 246 1 7 -5 11 -14 9 -9 -1 -23 5 -30 14 -12
15 -11 16 8 10 12 -4 24 -3 27 2 3 5 -10 8 -28 7 -29 -3 -49 10 -152 93 -594
481 -1033 911 -1327 1302 -183 244 -357 560 -462 840 -30 80 -55 134 -55 120
0 -18 -3 -21 -9 -12 -11 18 -22 -23 -15 -58 3 -14 -5 -2 -16 25 -33 80 -98
348 -120 497 -34 230 -40 478 -40 1725 l0 1201 478 5 c429 3 491 6 615 26 460
73 804 190 1192 408 121 68 416 261 505 331 36 29 67 52 70 52 3 0 42 -28 85
-61z m-2744 -4192 c-10 -9 -11 -8 -5 6 3 10 9 15 12 12 3 -3 0 -11 -7 -18z
m-14 -69 c-3 -8 -6 -5 -6 6 -1 11 2 17 5 13 3 -3 4 -12 1 -19z m5313 -148 c-6
-12 -14 -20 -17 -17 -2 3 1 14 8 26 17 26 24 19 9 -9z m-2740 -2430 c0 -5 -2
-10 -4 -10 -3 0 -8 5 -11 10 -3 6 -1 10 4 10 6 0 11 -4 11 -10z m120 0 c0 -5
-8 -10 -17 -10 -15 0 -16 2 -3 10 19 12 20 12 20 0z m-120 -30 c0 -5 -4 -10
-10 -10 -5 0 -10 5 -10 10 0 6 5 10 10 10 6 0 10 -4 10 -10z m16 -71 c3 -6 -5
-3 -20 6 -14 10 -26 19 -26 22 0 7 39 -17 46 -28z m49 3 c-3 -3 -11 0 -18 7
-9 10 -8 11 6 5 10 -3 15 -9 12 -12z m38 -46 c10 3 14 11 10 17 -4 6 -1 7 7 2
10 -6 9 -11 -5 -22 -25 -17 -29 -17 -51 10 l-19 22 21 -18 c12 -10 28 -15 37
-11z"/>
<path d="M5184 8196 c-171 -118 -310 -201 -499 -296 -354 -179 -665 -283
-1028 -345 -190 -32 -364 -45 -607 -45 l-195 0 -3 -1008 c-3 -1135 4 -1410 42
-1599 107 -529 410 -1049 911 -1562 363 -371 714 -666 1339 -1126 101 -74 122
-85 140 -77 29 13 568 418 724 544 435 350 758 651 975 908 304 360 527 757
631 1121 84 292 79 225 83 1144 2 451 4 1007 6 1236 l2 416 -285 6 c-287 6
-408 18 -610 58 -482 95 -948 295 -1421 609 l-115 77 -90 -61z m215 -405 c135
-88 271 -173 441 -277 74 -45 136 -90 138 -98 3 -12 -59 -126 -84 -155 -3 -3
-329 197 -547 336 l-69 44 -36 -23 c-20 -12 -75 -48 -122 -78 -138 -91 -446
-280 -456 -280 -9 0 -94 142 -94 157 0 4 51 39 113 78 282 175 486 304 532
338 28 20 56 34 64 32 7 -3 61 -36 120 -74z m1 -572 l130 -91 0 -642 0 -643
93 -50 c50 -28 263 -142 472 -253 209 -111 424 -227 478 -258 l99 -56 -7 -290
c-7 -312 -21 -439 -61 -579 -31 -111 -117 -294 -137 -294 -9 0 -13 6 -10 14 7
17 -13 17 -21 1 -3 -7 -4 -1 -1 15 3 15 4 27 2 27 -2 0 -21 -26 -42 -57 -52
-78 -187 -234 -270 -312 -77 -71 -204 -168 -274 -208 -25 -15 -65 -39 -87 -54
-23 -16 -44 -25 -48 -22 -3 4 -6 106 -6 228 0 251 -8 226 93 294 68 46 179
161 232 242 86 128 134 276 142 439 6 121 -10 206 -55 298 l-28 57 73 34 c41
19 70 38 66 42 -8 6 -133 75 -338 184 -49 27 -146 80 -215 118 -69 39 -152 84
-185 102 -33 18 -98 53 -144 79 -46 25 -85 46 -88 46 -2 0 -58 30 -124 66
l-119 65 0 688 0 687 46 29 c26 16 81 55 123 87 42 32 77 58 79 58 1 0 61 -41
132 -91z m-1312 69 c13 -13 16 -126 6 -166 -8 -28 -49 -50 -174 -90 -110 -36
-262 -68 -372 -77 l-78 -7 0 -153 0 -153 -50 -11 c-58 -12 -91 -14 -114 -5
-14 5 -16 38 -16 260 l0 254 23 0 c61 0 254 23 347 41 105 20 342 90 370 109
20 13 43 13 58 -2z m2499 -22 c172 -65 374 -107 581 -121 l102 -7 0 -247 c0
-179 -3 -250 -12 -259 -23 -23 -152 -6 -170 22 -4 6 -8 74 -8 151 l0 141 -132
18 c-139 19 -317 67 -422 115 l-63 28 -5 74 c-6 79 3 119 26 119 8 0 54 -15
103 -34z m-1755 -498 c3 -379 4 -357 -21 -374 -179 -126 -299 -280 -362 -469
-19 -56 -24 -92 -24 -175 0 -93 3 -111 27 -163 l27 -57 -32 -16 c-32 -17 -50
-35 -42 -42 2 -3 28 6 58 18 l55 23 118 -66 c66 -36 285 -156 488 -267 203
-111 377 -207 388 -213 17 -11 18 -47 18 -880 0 -822 -1 -868 -17 -865 -10 2
-22 13 -28 25 l-9 22 -46 -24 c-25 -13 -71 -36 -103 -50 -57 -26 -59 -27 -100
-10 -23 9 -70 32 -105 51 -34 19 -65 34 -67 34 -2 0 -11 -12 -19 -27 -14 -25
-15 45 -16 669 l0 696 109 77 109 77 -106 55 c-59 31 -246 133 -417 226 -437
239 -692 377 -751 407 -62 30 -65 39 -53 198 25 331 117 587 298 827 67 89
255 272 346 337 95 67 255 168 267 168 4 0 9 -96 10 -212z m982 164 c258 -150
473 -348 627 -576 57 -84 139 -235 139 -254 0 -5 -33 -12 -72 -16 -83 -8 -176
-33 -277 -76 -80 -34 -82 -35 -75 -17 3 8 -2 14 -11 14 -8 0 -15 -4 -15 -9 0
-18 -16 -6 -26 20 -33 85 -223 290 -330 355 -29 18 -55 41 -58 52 -3 11 -6
141 -6 288 l0 268 21 -6 c12 -4 49 -23 83 -43z m-2294 -602 c77 -40 123 -116
123 -202 -1 -106 -54 -176 -157 -211 -57 -20 -91 -23 -66 -7 8 5 25 10 38 10
12 0 22 5 22 10 0 6 -4 10 -10 10 -5 0 -10 6 -10 13 0 8 -10 19 -22 26 -13 6
-15 9 -5 7 11 -4 17 0 17 12 0 10 5 23 12 30 8 8 3 10 -24 6 -37 -6 -90 14
-105 40 -10 18 -31 4 -57 -36 -25 -38 -41 -35 -60 12 -76 190 123 373 304 280z
m3717 -1 c162 -78 161 -325 -2 -400 -42 -20 -93 -27 -65 -10 18 12 17 80 -2
93 -9 7 -7 8 8 4 14 -4 21 -2 21 7 0 10 -12 13 -49 9 -41 -4 -53 -1 -75 19
l-26 24 19 -30 c17 -26 17 -28 2 -22 -10 3 -21 1 -25 -8 -5 -7 -20 -15 -35
-17 -15 -2 -31 -8 -35 -13 -4 -4 -3 -6 2 -3 6 3 18 -5 29 -19 18 -25 18 -25
-3 -14 -12 7 -34 31 -49 54 -24 37 -27 52 -27 122 0 93 19 142 71 182 75 57
155 64 241 22z m-3904 -273 c4 -10 1 -13 -9 -9 -7 3 -14 9 -14 14 0 14 17 10
23 -5z m-18 -16 c3 -5 -1 -10 -9 -10 -9 0 -16 5 -16 10 0 6 4 10 9 10 6 0 13
-4 16 -10z m-51 -56 c5 -14 4 -15 -9 -4 -17 14 -19 20 -6 20 5 0 12 -7 15 -16z
m3766 2 c0 -3 -4 -8 -10 -11 -5 -3 -10 -1 -10 4 0 6 5 11 10 11 6 0 10 -2 10
-4z m-3556 -498 c3 -24 5 -178 3 -344 -2 -323 -4 -334 -54 -334 -29 0 -64 33
-92 89 -26 51 -40 181 -41 379 0 130 2 144 20 160 25 21 141 92 151 92 4 0 10
-19 13 -42z m3706 -8 c38 -22 72 -45 76 -52 4 -6 6 -106 5 -222 -2 -244 -14
-306 -67 -363 -25 -26 -39 -34 -61 -31 -50 6 -53 23 -53 387 0 298 2 333 16
327 8 -3 46 -24 84 -46z m-2796 -1002 c12 -59 94 -215 154 -290 67 -84 152
-163 233 -216 l57 -37 3 -160 c2 -88 3 -195 1 -237 l-4 -77 -26 18 c-15 10
-67 44 -117 76 -240 154 -402 311 -548 529 -41 62 -77 92 -77 65 0 -6 -5 -7
-10 -4 -6 4 -8 11 -5 16 3 5 -1 6 -9 3 -8 -3 -12 -13 -9 -22 4 -14 3 -15 -5
-2 -6 8 -8 18 -6 22 3 4 1 8 -4 8 -10 0 -63 110 -91 191 l-19 56 102 12 c114
14 251 42 311 65 57 21 62 20 69 -16z m2080 -443 c-4 -8 -11 -15 -16 -15 -6 0
-5 6 2 15 7 8 14 15 16 15 2 0 1 -7 -2 -15z m-1757 -990 c36 -24 56 -62 27
-51 -8 3 -14 1 -14 -4 0 -6 2 -10 4 -10 2 0 11 -3 20 -6 11 -4 14 0 11 15 -5
27 -1 27 48 -7 23 -16 96 -64 162 -107 120 -79 160 -108 117 -85 -13 6 -26 9
-29 6 -3 -3 1 -8 10 -12 9 -3 13 -12 10 -22 -5 -12 -2 -14 11 -9 9 4 15 3 12
-2 -8 -13 18 -21 35 -11 11 7 10 10 -4 16 -9 3 -17 10 -17 14 0 5 33 -14 73
-41 39 -27 78 -49 86 -49 8 0 80 43 160 95 144 93 169 107 155 83 -4 -7 -3 -8
5 -4 6 4 9 11 6 16 -3 4 61 51 141 105 166 109 149 109 204 1 23 -45 27 -62
19 -72 -13 -15 -391 -261 -416 -271 -12 -5 -14 -3 -8 7 5 9 4 11 -4 6 -6 -4
-9 -11 -6 -16 3 -5 -50 -43 -117 -84 -73 -46 -124 -72 -128 -66 -4 6 -15 8
-26 4 -14 -4 -15 -3 -5 4 11 8 10 12 -5 20 -16 9 -15 10 11 8 30 -4 55 8 55
25 0 5 -7 9 -16 9 -8 0 -13 -4 -10 -8 2 -4 -5 -9 -16 -9 -18 -2 -19 -1 -4 10
14 11 14 15 1 41 -9 16 -14 31 -11 33 2 2 10 -9 17 -26 9 -20 23 -33 41 -37
16 -3 28 -12 28 -20 0 -12 3 -12 20 -2 19 12 19 14 -15 28 -20 8 -33 19 -29
23 12 11 42 8 46 -5 3 -9 10 -7 23 6 19 18 19 19 -2 36 -16 13 -19 20 -10 29
15 15 -6 14 -22 -1 -11 -11 -11 -9 -1 8 9 15 20 19 38 16 17 -3 23 -1 18 7
-10 15 -27 14 -65 -5 -17 -9 -28 -20 -25 -26 5 -7 2 -8 -6 -3 -8 5 -18 1 -27
-10 -7 -11 -13 -15 -13 -10 0 5 7 17 17 27 14 16 15 18 0 18 -9 0 -19 -5 -22
-11 -4 -6 -14 -8 -22 -5 -9 4 -21 2 -28 -4 -10 -8 -15 -7 -21 1 -4 7 -2 15 4
17 7 2 9 9 5 15 -4 7 5 4 20 -5 51 -34 41 -18 -13 22 -55 39 -77 49 -65 30 4
-7 -2 -9 -17 -6 -39 7 -78 28 -71 39 3 6 -2 16 -12 24 -14 9 -15 13 -4 13 12
0 12 2 0 9 -21 14 -70 -15 -71 -41 0 -4 7 -14 17 -23 23 -24 3 -33 -62 -30
-44 2 -64 11 -118 48 -51 34 -63 47 -54 56 9 10 6 11 -15 6 -19 -5 -32 -1 -47
14 -12 12 -24 22 -28 22 -12 2 -49 29 -40 29 4 0 2 6 -5 14 -7 8 -16 12 -20 9
-5 -2 -8 5 -8 17 0 13 4 19 12 14 6 -4 8 -3 5 3 -6 10 49 123 59 123 3 0 21
-11 41 -25z m328 -295 c13 -25 13 -30 1 -30 -7 0 -16 8 -20 18 -3 9 -9 23 -12
30 -12 27 16 10 31 -18z m-51 -60 c8 -9 4 -10 -18 -4 -22 5 -27 4 -21 -6 4 -6
-4 -4 -19 5 -14 10 -26 18 -26 20 0 8 74 -5 84 -15z m40 7 c11 -10 10 -15 -2
-27 -14 -13 -15 -12 -10 2 4 8 1 21 -5 27 -6 6 -8 11 -3 11 4 0 13 -6 20 -13z
m141 2 c11 -16 1 -19 -13 -3 -7 8 -8 14 -3 14 5 0 13 -5 16 -11z m-70 -69 c3
-6 -1 -7 -9 -4 -18 7 -21 14 -7 14 6 0 13 -4 16 -10z m275 -20 c8 -5 11 -12 7
-17 -5 -4 -11 -3 -15 3 -4 6 -14 14 -22 17 -13 5 -13 5 0 6 8 0 22 -3 30 -9z
m-170 -56 c-6 -6 -7 -13 -4 -16 3 -3 0 -9 -7 -14 -8 -5 -10 -3 -4 6 6 10 4 12
-10 6 -14 -5 -16 -4 -7 7 7 8 9 17 6 20 -4 3 3 5 14 4 15 -1 18 -5 12 -13z"/>
<path d="M3252 6040 c0 -14 2 -19 5 -12 2 6 2 18 0 25 -3 6 -5 1 -5 -13z"/>
<path d="M5865 3039 c-4 -6 -5 -12 -2 -15 2 -3 7 2 10 11 7 17 1 20 -8 4z"/>
<path d="M4770 2976 c0 -2 7 -7 16 -10 8 -3 12 -2 9 4 -6 10 -25 14 -25 6z"/>
<path d="M4826 2932 c-2 -4 4 -8 14 -8 10 0 16 4 14 8 -3 4 -9 8 -14 8 -5 0
-11 -4 -14 -8z"/>
<path d="M5685 2920 c-3 -6 1 -7 9 -4 18 7 21 14 7 14 -6 0 -13 -4 -16 -10z"/>
<path d="M4877 2908 c7 -8 9 -19 5 -23 -4 -5 -2 -5 5 -2 16 10 43 -2 43 -19 0
-8 5 -14 10 -14 27 0 -3 36 -50 60 -22 12 -23 11 -13 -2z"/>
<path d="M4827 2889 c7 -7 15 -10 18 -7 3 3 -2 9 -12 12 -14 6 -15 5 -6 -5z"/>
<path d="M4962 2865 c4 -4 2 -15 -5 -24 -10 -14 -10 -14 3 -5 12 9 18 9 28 -2
10 -10 10 -14 1 -14 -7 0 -10 -3 -6 -6 3 -3 12 -2 20 3 11 6 8 13 -17 32 -17
14 -28 21 -24 16z"/>
<path d="M4765 2811 c-4 -7 0 -8 11 -4 11 4 15 2 11 -4 -6 -10 26 -38 70 -61
17 -10 21 -9 19 3 -1 8 -6 18 -11 22 -4 4 -5 2 0 -6 5 -9 3 -12 -6 -9 -8 3
-14 10 -14 16 0 5 -4 14 -9 19 -5 5 -6 2 -1 -6 5 -9 3 -12 -6 -9 -8 3 -13 10
-12 16 2 6 -4 9 -13 5 -9 -3 -14 -1 -12 7 4 16 -18 25 -27 11z"/>
<path d="M5504 2804 c-18 -14 -18 -15 4 -4 12 6 22 13 22 15 0 8 -5 6 -26 -11z"/>
<path d="M4857 2789 c7 -7 15 -10 18 -7 3 3 -2 9 -12 12 -14 6 -15 5 -6 -5z"/>
<path d="M5450 2770 c-18 -12 -2 -12 25 0 13 6 15 9 5 9 -8 0 -22 -4 -30 -9z"/>
<path d="M5357 2718 c-32 -22 -55 -43 -51 -47 4 -3 9 -1 11 6 2 7 12 9 21 6 9
-3 14 -2 10 2 -8 9 51 51 65 47 5 -1 6 2 3 7 -4 5 0 12 6 14 7 3 9 5 3 5 -5 0
-36 -18 -68 -40z"/>
<path d="M5490 2750 c-13 -8 -12 -10 3 -10 9 0 17 5 17 10 0 12 -1 12 -20 0z"/>
<path d="M4960 2730 c0 -5 5 -10 11 -10 5 0 7 5 4 10 -3 6 -8 10 -11 10 -2 0
-4 -4 -4 -10z"/>
<path d="M5452 2720 c-12 -5 -30 -6 -39 -3 -11 4 -14 3 -9 -5 4 -7 14 -12 22
-12 17 0 18 -12 2 -28 -9 -9 -9 -12 0 -12 7 0 12 5 12 10 0 6 7 10 15 10 21 0
19 20 -2 20 -12 1 -7 6 12 15 33 15 23 19 -13 5z"/>
<path d="M5518 2723 c7 -3 16 -2 19 1 4 3 -2 6 -13 5 -11 0 -14 -3 -6 -6z"/>
<path d="M5540 2700 c8 -5 20 -10 25 -10 6 0 3 5 -5 10 -8 5 -19 10 -25 10 -5
0 -3 -5 5 -10z"/>
<path d="M5560 2670 c-9 -6 -10 -10 -3 -10 6 0 15 5 18 10 8 12 4 12 -15 0z"/>
<path d="M5418 2643 c7 -3 16 -2 19 1 4 3 -2 6 -13 5 -11 0 -14 -3 -6 -6z"/>
<path d="M5430 2618 c0 -4 4 -8 9 -8 6 0 12 4 15 8 3 5 -1 9 -9 9 -8 0 -15 -4
-15 -9z"/>
<path d="M5305 2509 c-4 -6 -14 -8 -24 -4 -12 5 -13 3 -4 -6 9 -9 17 -8 34 5
13 9 18 16 12 16 -7 0 -15 -5 -18 -11z"/>
<path d="M2591 4600 c0 -8 4 -22 9 -30 12 -18 12 -2 0 25 -6 13 -9 15 -9 5z"/>
<path d="M2561 4554 c0 -11 3 -14 6 -6 3 7 2 16 -1 19 -3 4 -6 -2 -5 -13z"/>
<path d="M5590 2289 c0 -5 5 -7 10 -4 6 3 10 8 10 11 0 2 -4 4 -10 4 -5 0 -10
-5 -10 -11z"/>
<path d="M5499 2223 c-13 -16 -12 -17 4 -4 16 13 21 21 13 21 -2 0 -10 -8 -17
-17z"/>
<path d="M5400 2149 c-19 -17 -26 -26 -15 -21 18 9 64 52 54 52 -2 0 -20 -14
-39 -31z"/>
<path d="M4660 2126 c0 -3 27 -25 59 -50 54 -42 60 -44 72 -29 8 9 9 14 2 10
-16 -10 -44 3 -36 16 3 6 1 7 -6 3 -7 -4 -26 5 -47 23 -33 30 -44 36 -44 27z"/>
<path d="M5342 2107 c-8 -10 -6 -13 11 -14 12 0 16 1 9 4 -6 3 -10 9 -6 14 8
14 -2 11 -14 -4z"/>
<path d="M5284 2059 c-19 -22 -19 -22 3 -10 24 12 39 31 25 31 -5 0 -17 -10
-28 -21z"/>
<path d="M4943 2040 c-28 -11 -30 -20 -4 -20 10 0 21 7 25 15 3 8 4 15 3 14
-1 0 -12 -4 -24 -9z"/>
<path d="M4856 2022 c-3 -5 1 -9 9 -9 8 0 12 4 9 9 -3 4 -7 8 -9 8 -2 0 -6 -4
-9 -8z"/>
<path d="M5277 2023 c-10 -10 -8 -23 4 -23 5 0 8 4 5 9 -4 5 0 12 6 14 7 3 8
6 2 6 -6 1 -14 -2 -17 -6z"/>
<path d="M5345 2020 c-3 -5 -1 -10 4 -10 6 0 11 5 11 10 0 6 -2 10 -4 10 -3 0
-8 -4 -11 -10z"/>
<path d="M4983 2013 c9 -2 25 -2 35 0 9 3 1 5 -18 5 -19 0 -27 -2 -17 -5z"/>
<path d="M5370 2010 c0 -5 5 -10 10 -10 6 0 10 5 10 10 0 6 -4 10 -10 10 -5 0
-10 -4 -10 -10z"/>
<path d="M5337 1964 c8 -24 17 -44 19 -44 2 0 4 17 4 39 0 30 -4 40 -19 44
-18 4 -18 3 -4 -39z"/>
<path d="M4940 1990 c0 -5 5 -10 10 -10 6 0 10 5 10 10 0 6 -4 10 -10 10 -5 0
-10 -4 -10 -10z"/>
<path d="M5216 1933 c-6 -14 -5 -15 5 -6 7 7 10 15 7 18 -3 3 -9 -2 -12 -12z"/>
<path d="M5250 1941 c0 -6 4 -13 10 -16 6 -3 7 1 4 9 -7 18 -14 21 -14 7z"/>
<path d="M5148 1923 c6 -2 18 -2 25 0 6 3 1 5 -13 5 -14 0 -19 -2 -12 -5z"/>
<path d="M5560 1910 c8 -5 20 -10 25 -10 6 0 3 5 -5 10 -8 5 -19 10 -25 10 -5
0 -3 -5 5 -10z"/>
<path d="M5360 1899 c0 -5 5 -7 10 -4 6 3 10 8 10 11 0 2 -4 4 -10 4 -5 0 -10
-5 -10 -11z"/>
<path d="M5545 1890 c3 -5 8 -10 11 -10 2 0 4 5 4 10 0 6 -5 10 -11 10 -5 0
-7 -4 -4 -10z"/>
<path d="M5003 1863 c9 -9 20 -13 24 -9 4 4 1 11 -7 16 -25 16 -35 11 -17 -7z"/>
<path d="M5466 1835 c-11 -8 -17 -17 -14 -20 3 -3 16 3 29 14 27 23 14 28 -15
6z"/>
<path d="M5360 1821 c0 -5 7 -12 16 -15 8 -3 13 -2 9 3 -3 5 1 12 7 14 7 3 3
6 -9 6 -13 1 -23 -3 -23 -8z"/>
<path d="M5400 1790 c0 -5 5 -10 10 -10 6 0 10 5 10 10 0 6 -4 10 -10 10 -5 0
-10 -4 -10 -10z"/>
</g>
</svg>
